<svg width="24" height="24" viewBox="0 0 24 24" fill="none" xmlns="http://www.w3.org/2000/svg">
<g clip-path="url(#clip0_164_1736)">
<path d="M23.3486 0.262557C23.822 0.590682 24.0704 1.15787 23.9814 1.72506L20.9814 21.2251C20.9111 21.6797 20.6345 22.0782 20.2314 22.3032C19.8282 22.5282 19.3454 22.5563 18.9189 22.3782L13.3126 20.0485L10.1017 23.5219C9.6845 23.9766 9.02825 24.1266 8.45168 23.9016C7.87512 23.6766 7.50012 23.1188 7.50012 22.5001V18.5813C7.50012 18.3938 7.57043 18.2157 7.697 18.0797L15.5532 9.50631C15.8251 9.21099 15.8157 8.75631 15.5345 8.47506C15.2532 8.19381 14.7986 8.17506 14.5032 8.44225L4.96887 16.9126L0.82981 14.8407C0.332935 14.5922 0.0141845 14.0954 0.000122018 13.5422C-0.0139405 12.9891 0.276685 12.4735 0.75481 12.1969L21.7548 0.196932C22.2564 -0.0890053 22.8751 -0.0608803 23.3486 0.262557Z" fill="#2D9CDB"/>
</g>
<defs>
<clipPath id="clip0_164_1736">
<rect width="24" height="24" fill="white"/>
</clipPath>
</defs>
</svg>
