<svg width="64" height="64" viewBox="0 0 64 64" fill="none" xmlns="http://www.w3.org/2000/svg">
<rect x="0.463768" y="0.463799" width="63.0725" height="63.0725" fill="black"/>
<rect x="0.463768" y="0.463799" width="63.0725" height="63.0725" stroke="black" stroke-width="0.927536"/>
<path d="M52.3696 32.0001C52.3696 43.2499 43.2498 52.3696 32 52.3696C20.7502 52.3696 11.6304 43.2499 11.6304 32.0001C11.6304 20.7503 20.7502 11.6305 32 11.6305C43.2498 11.6305 52.3696 20.7503 52.3696 32.0001Z" stroke="white"/>
<path d="M11.4467 32.3163H52.5534" stroke="white"/>
<path d="M32 11.1305L32 52.2372" stroke="white"/>
<path d="M52.3696 32C52.3696 34.6853 50.2462 37.2423 46.528 39.1576C42.8357 41.0597 37.7001 42.251 32 42.251C26.2999 42.251 21.1643 41.0597 17.472 39.1576C13.7538 37.2423 11.6304 34.6853 11.6304 32C11.6304 29.3148 13.7538 26.7578 17.472 24.8424C21.1643 22.9403 26.2999 21.7491 32 21.7491C37.7001 21.7491 42.8357 22.9403 46.528 24.8424C50.2462 26.7578 52.3696 29.3148 52.3696 32Z" stroke="white"/>
<path d="M46.8617 46.0484C43.0771 44.0128 37.8164 42.751 32 42.751C26.1836 42.751 20.923 44.0128 17.1384 46.0484" stroke="white"/>
<path d="M17.1384 18.087C20.923 20.1226 26.1836 21.3844 32 21.3844C37.8164 21.3844 43.0771 20.1226 46.8617 18.087" stroke="white"/>
</svg>
