<svg width="70" height="70" viewBox="0 0 70 70" fill="none" xmlns="http://www.w3.org/2000/svg">
<path d="M56.8166 35.1739C56.8166 47.1268 47.1268 56.8166 35.1739 56.8166C23.221 56.8166 13.5312 47.1268 13.5312 35.1739C13.5312 23.221 23.221 13.5312 35.1739 13.5312C47.1268 13.5312 56.8166 23.221 56.8166 35.1739Z" stroke="black" stroke-width="1.0625"/>
<path d="M13.336 35.5099H57.0119" stroke="black" stroke-width="1.0625"/>
<path d="M35.1741 13L35.1741 56.6759" stroke="black" stroke-width="1.0625"/>
<path d="M56.8167 35.1738C56.8167 38.0269 54.5605 40.7437 50.61 42.7788C46.687 44.7998 41.2303 46.0655 35.174 46.0655C29.1177 46.0655 23.661 44.7998 19.738 42.7788C15.7875 40.7437 13.5313 38.0269 13.5313 35.1738C13.5313 32.3208 15.7875 29.604 19.738 27.5689C23.661 25.5479 29.1177 24.2822 35.174 24.2822C41.2303 24.2822 46.687 25.5479 50.61 27.5689C54.5605 29.604 56.8167 32.3208 56.8167 35.1738Z" stroke="black" stroke-width="1.0625"/>
<path d="M50.9644 50.1003C46.9433 47.9375 41.3538 46.5968 35.1739 46.5968C28.994 46.5968 23.4046 47.9375 19.3834 50.1003" stroke="black" stroke-width="1.0625"/>
<path d="M19.3835 20.3913C23.4046 22.5541 28.994 23.8948 35.174 23.8948C41.3539 23.8948 46.9433 22.5541 50.9645 20.3913" stroke="black" stroke-width="1.0625"/>
<path d="M60 1H69V10" stroke="black"/>
<path d="M10 1H1V10" stroke="black"/>
<path d="M60 69H69V60" stroke="black"/>
<path d="M10 69H1V60" stroke="black"/>
</svg>
