<svg width="137" height="151" viewBox="0 0 137 151" fill="none" xmlns="http://www.w3.org/2000/svg">
<rect x="0.5" y="1" width="136" height="149" fill="#0D4CF5"/>
<rect x="0.5" y="1" width="136" height="149" stroke="#8A8A8A"/>
<path fill-rule="evenodd" clip-rule="evenodd" d="M68.3762 42.3001C50.9129 42.3001 36.5724 56.6116 35.7602 74.6903H47.2761H48.8881V76.3098C48.8881 87.3411 57.7889 96.2838 68.7687 96.2838C74.442 96.2838 79.5581 93.8983 83.1823 90.0667L85.5192 92.298C81.3118 96.7463 75.3616 99.5228 68.7687 99.5228C56.5503 99.5228 46.5471 89.9939 45.7195 77.9293H32.5V76.3098V74.6903H32.5334C33.3494 54.9178 49.0358 39.061 68.3762 39.061C84.739 39.061 98.4937 50.4202 102.828 65.8839L99.7245 66.7618C95.7534 52.5928 83.1924 42.3001 68.3762 42.3001ZM101.276 74.7112C101.276 74.7042 101.276 74.6973 101.276 74.6903H104.5C104.5 95.2093 88.4895 111.939 68.6238 111.939C52.261 111.939 38.5063 100.58 34.1723 85.1163L37.2755 84.2383C41.2466 98.4074 53.8076 108.7 68.6238 108.7C85.5554 108.7 99.5515 95.2466 101.128 77.9501L89.4545 77.9452L87.8426 77.9445L87.8433 76.325C87.8479 65.2937 78.9509 56.3472 67.9711 56.3425C62.2978 56.3401 57.1807 58.7234 53.5549 62.5534L51.2189 60.3212C55.4282 55.8747 61.3795 53.1007 67.9725 53.1035C80.1909 53.1087 90.19 62.6419 91.0125 74.7068L101.276 74.7112Z" fill="white"/>
<circle cx="68.5" cy="75.5" r="9" stroke="white" stroke-width="3"/>
</svg>
