<svg width="24" height="24" viewBox="0 0 24 24" fill="none" xmlns="http://www.w3.org/2000/svg">
<path d="M16 9C16 12.87 12.87 16 9 16C8.68 16 8.37 15.98 8.07 15.93C4.64 15.48 2 12.55 2 9C2 5.13 5.13 2 9 2C12.55 2 15.48 4.64 15.93 8.07C15.98 8.37 16 8.68 16 9Z" stroke="#BDBDBD" stroke-width="1.5" stroke-linecap="round" stroke-linejoin="round"/>
<path d="M22 15.0001C22 18.8701 18.87 22.0001 15 22.0001C11.45 22.0001 8.52001 19.3601 8.07001 15.9301C8.37001 15.9801 8.68001 16.0001 9.00001 16.0001C12.87 16.0001 16 12.8701 16 9.00007C16 8.68007 15.98 8.37007 15.93 8.07007C19.36 8.52007 22 11.4501 22 15.0001Z" stroke="#BDBDBD" stroke-width="1.5" stroke-linecap="round" stroke-linejoin="round"/>
<path d="M14.15 14.1201L15.46 15.4101" stroke="#BDBDBD" stroke-width="1.5" stroke-linecap="round" stroke-linejoin="round"/>
<path d="M17 12L16 11" stroke="#BDBDBD" stroke-width="1.5" stroke-linecap="round" stroke-linejoin="round"/>
<path d="M12 17L11 16" stroke="#BDBDBD" stroke-width="1.5" stroke-linecap="round" stroke-linejoin="round"/>
</svg>
