<svg width="201" height="3" viewBox="0 0 201 3" fill="none" xmlns="http://www.w3.org/2000/svg">
<circle cx="1.5" cy="1.5" r="1.5" fill="#4F4F4F"/>
<circle cx="7.5" cy="1.5" r="1.5" fill="#4F4F4F"/>
<circle cx="13.5" cy="1.5" r="1.5" fill="#4F4F4F"/>
<circle cx="19.5" cy="1.5" r="1.5" fill="#4F4F4F"/>
<circle cx="25.5" cy="1.5" r="1.5" fill="#4F4F4F"/>
<circle cx="31.5" cy="1.5" r="1.5" fill="#4F4F4F"/>
<circle cx="37.5" cy="1.5" r="1.5" fill="#4F4F4F"/>
<circle cx="43.5" cy="1.5" r="1.5" fill="#4F4F4F"/>
<circle cx="49.5" cy="1.5" r="1.5" fill="#4F4F4F"/>
<circle cx="55.5" cy="1.5" r="1.5" fill="#4F4F4F"/>
<circle cx="61.5" cy="1.5" r="1.5" fill="#4F4F4F"/>
<circle cx="67.5" cy="1.5" r="1.5" fill="#4F4F4F"/>
<circle cx="73.5" cy="1.5" r="1.5" fill="#4F4F4F"/>
<circle cx="79.5" cy="1.5" r="1.5" fill="#4F4F4F"/>
<circle cx="85.5" cy="1.5" r="1.5" fill="#4F4F4F"/>
<circle cx="91.5" cy="1.5" r="1.5" fill="#4F4F4F"/>
<circle cx="97.5" cy="1.5" r="1.5" fill="#4F4F4F"/>
<circle cx="103.5" cy="1.5" r="1.5" fill="#4F4F4F"/>
<circle cx="109.5" cy="1.5" r="1.5" fill="#4F4F4F"/>
<circle cx="115.5" cy="1.5" r="1.5" fill="#4F4F4F"/>
<circle cx="121.5" cy="1.5" r="1.5" fill="#4F4F4F"/>
<circle cx="127.5" cy="1.5" r="1.5" fill="#4F4F4F"/>
<circle cx="133.5" cy="1.5" r="1.5" fill="#4F4F4F"/>
<circle cx="139.5" cy="1.5" r="1.5" fill="#4F4F4F"/>
<circle cx="145.5" cy="1.5" r="1.5" fill="#4F4F4F"/>
<circle cx="151.5" cy="1.5" r="1.5" fill="#4F4F4F"/>
<circle cx="157.5" cy="1.5" r="1.5" fill="#4F4F4F"/>
<circle cx="163.5" cy="1.5" r="1.5" fill="#4F4F4F"/>
<circle cx="169.5" cy="1.5" r="1.5" fill="#4F4F4F"/>
<circle cx="175.5" cy="1.5" r="1.5" fill="#4F4F4F"/>
<circle cx="181.5" cy="1.5" r="1.5" fill="#4F4F4F"/>
<circle cx="187.5" cy="1.5" r="1.5" fill="#4F4F4F"/>
<circle cx="193.5" cy="1.5" r="1.5" fill="#4F4F4F"/>
<circle cx="199.5" cy="1.5" r="1.5" fill="#4F4F4F"/>
</svg>
