<svg width="22" height="22" viewBox="0 0 22 22" fill="none" xmlns="http://www.w3.org/2000/svg">
<path fill-rule="evenodd" clip-rule="evenodd" d="M0 0H9.77778V6.84444L6.6 3.66667L3.66667 6.6L6.84444 9.77778H0V0ZM6.84445 12.2222L8.06667 11L6.84444 9.77778H9.77778V6.84444L11 8.06667L12.2222 6.84446V9.77778H15.1556L13.9333 11L15.1556 12.2222H12.2222V15.1556L11 13.9333L9.77778 15.1556V12.2222H6.84445ZM6.84445 12.2222L3.66667 15.4L6.6 18.3333L9.77778 15.1556V22H0V12.2222H6.84445ZM12.2222 15.1556V22H22V12.2222H15.1556L18.3333 15.4L15.4 18.3333L12.2222 15.1556ZM15.1556 9.77778H22V0H12.2222V6.84446L15.4 3.66668L18.3333 6.60001L15.1556 9.77778Z" fill="#0D4CF5"/>
</svg>
