<svg width="20" height="21" viewBox="0 0 20 21" fill="none" xmlns="http://www.w3.org/2000/svg">
<g id="vuesax/linear/user-octagon">
<g id="user-octagon">
<path id="Vector" d="M17.5667 7.47189V13.1719C17.5667 14.1052 17.0667 14.9719 16.2583 15.4469L11.3083 18.3052C10.5 18.7719 9.49999 18.7719 8.68332 18.3052L3.73332 15.4469C2.92499 14.9802 2.42499 14.1135 2.42499 13.1719V7.47189C2.42499 6.53855 2.92499 5.67185 3.73332 5.19685L8.68332 2.33853C9.49166 1.87186 10.4917 1.87186 11.3083 2.33853L16.2583 5.19685C17.0667 5.67185 17.5667 6.53022 17.5667 7.47189Z" stroke="#292D32" stroke-width="1.25" stroke-linecap="round" stroke-linejoin="round"/>
<g id="Group">
<path id="Vector_2" d="M10 9.48854C11.0724 9.48854 11.9417 8.61921 11.9417 7.54685C11.9417 6.4745 11.0724 5.60522 10 5.60522C8.92766 5.60522 8.05835 6.4745 8.05835 7.54685C8.05835 8.61921 8.92766 9.48854 10 9.48854Z" stroke="#292D32" stroke-width="1.25" stroke-linecap="round" stroke-linejoin="round"/>
<path id="Vector_3" d="M13.3334 14.2051C13.3334 12.7051 11.8417 11.4885 10 11.4885C8.15835 11.4885 6.66669 12.7051 6.66669 14.2051" stroke="#292D32" stroke-width="1.25" stroke-linecap="round" stroke-linejoin="round"/>
</g>
</g>
</g>
</svg>
