<svg width="26" height="26" viewBox="0 0 26 26" fill="none" xmlns="http://www.w3.org/2000/svg">
<path fill-rule="evenodd" clip-rule="evenodd" d="M0.5979 0.827271H11.7042V8.60163L8.0947 4.99218L4.76282 8.32405L8.3723 11.9335H0.5979V0.827271ZM8.37229 14.7101L9.7606 13.3218L8.3723 11.9335H11.7042V8.60163L13.0925 9.98996L14.4808 8.60168V11.9335H17.8127L16.4244 13.3218L17.8127 14.7101H14.4808V18.042L13.0925 16.6537L11.7042 18.042V14.7101H8.37229ZM8.37229 14.7101L4.76277 18.3197L8.09465 21.6515L11.7042 18.042V25.8164H0.597956V14.7101H8.37229ZM14.4808 18.042V25.8164H25.587V14.7101H17.8127L21.4222 18.3197L18.0903 21.6516L14.4808 18.042ZM17.8127 11.9335H25.587V0.827281H14.4808V8.60168L18.0903 4.99216L21.4222 8.32404L17.8127 11.9335Z" fill="white"/>
</svg>
