<svg width="22" height="23" viewBox="0 0 22 23" fill="none" xmlns="http://www.w3.org/2000/svg">
<path fill-rule="evenodd" clip-rule="evenodd" d="M0 0.949951H9.77778V7.7944L6.6 4.61662L3.66667 7.54995L6.84444 10.7277H0V0.949951ZM6.84445 13.1722L8.06667 11.95L6.84444 10.7277H9.77778V7.7944L11 9.01662L12.2222 7.79441V10.7277H15.1556L13.9333 11.95L15.1556 13.1722H12.2222V16.1055L11 14.8833L9.77778 16.1055V13.1722H6.84445ZM6.84445 13.1722L3.66667 16.35L6.6 19.2833L9.77778 16.1055V22.95H0V13.1722H6.84445ZM12.2222 16.1055V22.95H22V13.1722H15.1556L18.3333 16.35L15.4 19.2833L12.2222 16.1055ZM15.1556 10.7277H22V0.949951H12.2222V7.79441L15.4 4.61663L18.3333 7.54996L15.1556 10.7277Z" fill="#0D4CF5"/>
</svg>
